<svg width="1496" height="363" viewBox="0 0 1496 363" fill="none" xmlns="http://www.w3.org/2000/svg">
<path d="M185 307V362.2H0.6V307H185ZM326.703 103.4C351.77 103.4 373.103 112.6 390.703 131C408.303 149.133 417.103 173.667 417.103 204.6C417.103 235.533 408.303 260.2 390.703 278.6C373.103 296.733 351.77 305.8 326.703 305.8C302.97 305.8 284.57 297 271.503 279.4L269.503 301H211.903V14.6L273.503 0.599981V127.4C286.036 111.4 303.77 103.4 326.703 103.4ZM341.503 240.2C348.97 231.133 352.703 219.267 352.703 204.6C352.703 189.933 348.97 178.2 341.503 169.4C334.303 160.333 324.57 155.8 312.303 155.8C300.303 155.8 290.836 160.067 283.903 168.6C277.236 177.133 273.77 188.467 273.503 202.6V204.6C273.503 219.267 276.836 231.133 283.503 240.2C290.436 249 300.036 253.4 312.303 253.4C324.57 253.4 334.303 249 341.503 240.2ZM514.584 51.4C514.584 61.8 511.518 70.3333 505.384 77C499.518 83.4 491.251 86.6 480.584 86.6C470.184 86.6 461.918 83.2667 455.784 76.6C449.651 69.9333 446.584 61.5333 446.584 51.4C446.584 40.4667 449.651 31.8 455.784 25.4C461.918 18.7333 470.184 15.4 480.584 15.4C490.984 15.4 499.251 18.7333 505.384 25.4C511.518 31.8 514.584 40.4667 514.584 51.4ZM450.184 108.2H511.784V301H450.184V108.2ZM542.891 159.4V108.2H568.491V72.6L630.091 54.6V108.2H694.091V159.4H630.091V215.4C630.091 229.533 632.224 239.533 636.491 245.4C640.757 251 647.957 253.8 658.091 253.8C669.824 253.8 681.557 251.533 693.291 247L707.291 292.2C687.291 300.733 665.157 305 640.891 305C618.224 305 600.491 299.4 587.691 288.2C574.891 276.733 568.491 260.333 568.491 239V159.4H542.891Z" fill="#0A1365"/>
<path d="M810.263 102.6C833.729 102.6 852.263 110.867 865.863 127.4V108.2H927.463V301H865.863V282.2C853.063 297.4 834.529 305 810.263 305C783.329 305 761.729 295.8 745.463 277.4C729.196 258.733 721.063 234.467 721.063 204.6C721.063 173.933 729.463 149.267 746.263 130.6C763.329 111.933 784.663 102.6 810.263 102.6ZM785.463 203.4C785.463 218.067 789.063 229.933 796.263 239C803.463 248.067 813.196 252.6 825.463 252.6C837.729 252.6 847.463 248.2 854.663 239.4C862.129 230.333 865.863 218.467 865.863 203.8V201.8C865.329 187.933 861.329 176.6 853.863 167.8C846.663 159 837.196 154.6 825.463 154.6C813.463 154.6 803.729 159.133 796.263 168.2C789.063 177.267 785.463 189 785.463 203.4ZM1152.12 301H1094.52L1092.92 282.6C1077.72 297.533 1060.12 305 1040.12 305C1018.25 305 1000.65 298.2 987.316 284.6C974.249 270.733 967.716 251.4 967.716 226.6V108.2H1029.32V220.6C1029.32 232.067 1031.85 240.733 1036.92 246.6C1041.98 252.2 1048.52 255 1056.52 255C1070.12 255 1081.45 248.733 1090.52 236.2V108.2H1152.12V301ZM1194.33 14.6L1255.93 0.599981V301H1194.33V14.6ZM1378.23 102.6C1401.7 102.6 1420.23 110.867 1433.83 127.4V108.2H1495.43V301H1433.83V282.2C1421.03 297.4 1402.5 305 1378.23 305C1351.3 305 1329.7 295.8 1313.43 277.4C1297.16 258.733 1289.03 234.467 1289.03 204.6C1289.03 173.933 1297.43 149.267 1314.23 130.6C1331.3 111.933 1352.63 102.6 1378.23 102.6ZM1353.43 203.4C1353.43 218.067 1357.03 229.933 1364.23 239C1371.43 248.067 1381.16 252.6 1393.43 252.6C1405.7 252.6 1415.43 248.2 1422.63 239.4C1430.1 230.333 1433.83 218.467 1433.83 203.8V201.8C1433.3 187.933 1429.3 176.6 1421.83 167.8C1414.63 159 1405.16 154.6 1393.43 154.6C1381.43 154.6 1371.7 159.133 1364.23 168.2C1357.03 177.267 1353.43 189 1353.43 203.4Z" fill="#752CF5"/>
</svg>
